<?xml version="1.0" standalone="no"?>
<!DOCTYPE svg PUBLIC "-//W3C//DTD SVG 20010904//EN"
 "http://www.w3.org/TR/2001/REC-SVG-20010904/DTD/svg10.dtd">
<svg version="1.0" xmlns="http://www.w3.org/2000/svg"
 width="828.000000pt" height="828.000000pt" viewBox="0 0 828.000000 828.000000"
 preserveAspectRatio="xMidYMid meet">
<metadata>
Created by potrace 1.14, written by Peter Selinger 2001-2017
</metadata>
<g transform="translate(0.000000,828.000000) scale(0.100000,-0.100000)"
fill="#000000" stroke="none">
<path d="M3889 8266 c-2 -2 -40 -6 -84 -10 -152 -13 -191 -18 -340 -42 -414
-68 -812 -197 -1185 -384 -408 -203 -801 -492 -1109 -814 -31 -32 -65 -68 -76
-80 -21 -22 -136 -155 -170 -197 -217 -267 -430 -611 -553 -889 -11 -25 -30
-67 -42 -95 -144 -325 -276 -832 -305 -1170 -4 -44 -10 -89 -12 -100 -3 -11
-6 -144 -8 -295 -6 -705 123 -1271 438 -1917 42 -86 156 -286 220 -384 94
-145 195 -279 357 -474 62 -74 366 -369 470 -456 432 -360 940 -631 1480 -791
119 -35 288 -77 375 -92 17 -3 41 -8 55 -10 71 -14 223 -35 280 -41 36 -3 101
-10 145 -14 84 -9 578 -6 655 3 25 3 72 8 105 11 88 9 133 15 195 26 30 5 73
12 95 15 77 11 371 82 487 118 514 159 1048 448 1426 774 15 12 55 46 89 75
177 148 463 465 629 697 328 459 549 952 675 1503 26 117 37 177 54 292 3 23
7 51 10 64 2 13 7 56 11 95 3 39 8 82 11 96 9 42 10 580 2 665 -5 44 -11 112
-14 150 -4 39 -13 106 -21 150 -7 44 -16 98 -19 120 -12 84 -78 356 -120 491
-160 517 -404 971 -759 1409 -114 141 -417 441 -571 566 -296 240 -605 432
-935 579 -104 47 -151 66 -330 132 -72 26 -309 96 -385 113 -220 49 -403 81
-530 91 -38 3 -81 8 -95 11 -27 6 -595 14 -601 9z"/>
</g>
</svg>
