<?xml version="1.0" encoding="UTF-8" standalone="no"?>
<!DOCTYPE svg PUBLIC "-//W3C//DTD SVG 1.1//EN" "http://www.w3.org/Graphics/SVG/1.1/DTD/svg11.dtd">
<svg width="100%" height="100%" viewBox="0 0 48 48" version="1.1" xmlns="http://www.w3.org/2000/svg" xmlns:xlink="http://www.w3.org/1999/xlink" xml:space="preserve" xmlns:serif="http://www.serif.com/" style="fill-rule:evenodd;clip-rule:evenodd;stroke-linejoin:round;stroke-miterlimit:2;">
    <path d="M39.8,41.95L26.65,28.8C25.65,29.667 24.484,30.342 23.152,30.825C21.82,31.308 20.403,31.55 18.9,31.55C15.295,31.55 12.243,30.3 9.746,27.8C7.249,25.3 6,22.283 6,18.75C6,15.217 7.25,12.2 9.75,9.7C12.25,7.2 15.275,5.95 18.825,5.95C22.375,5.95 25.392,7.2 27.875,9.7C30.358,12.2 31.6,15.219 31.6,18.757C31.6,20.186 31.367,21.567 30.9,22.9C30.433,24.233 29.733,25.483 28.8,26.65L42,39.75L39.8,41.95ZM18.85,28.55C21.558,28.55 23.86,27.592 25.756,25.675C27.652,23.758 28.6,21.45 28.6,18.75C28.6,16.05 27.652,13.742 25.756,11.825C23.86,9.908 21.558,8.95 18.85,8.95C16.114,8.95 13.788,9.908 11.873,11.825C9.958,13.742 9,16.05 9,18.75C9,21.45 9.958,23.758 11.873,25.675C13.788,27.592 16.114,28.55 18.85,28.55Z" style="fill:rgb(142,142,142);fill-rule:nonzero;"/>
</svg>
